<?xml version="1.0" encoding="UTF-8"?>
<svg width="60px" height="60px" version="1.1" viewBox="0 0 60 60" xmlns="http://www.w3.org/2000/svg" xmlns:cc="http://creativecommons.org/ns#" xmlns:dc="http://purl.org/dc/elements/1.1/" xmlns:rdf="http://www.w3.org/1999/02/22-rdf-syntax-ns#">
 <metadata>
  <rdf:RDF>
   <cc:Work rdf:about="">
    <dc:format>image/svg+xml</dc:format>
    <dc:type rdf:resource="http://purl.org/dc/dcmitype/StillImage"/>
    <dc:title>Untitled</dc:title>
   </cc:Work>
  </rdf:RDF>
 </metadata>
 <!-- Generator: Sketch 52.5 (67469) - http://www.bohemiancoding.com/sketch -->
 <title>Untitled</title>
 <desc>Created with Sketch.</desc>
 <g fill-rule="evenodd">
  <g aria-label="9">
   <path d="m9.732 14.498c-1.826 0-3.014-1.474-3.014-4.114 0-2.904 1.144-4.224 2.552-4.224 1.54 0 2.64 1.562 2.64 5.742 0 0.66-0.022 1.276-0.088 1.87-0.616 0.506-1.276 0.726-2.09 0.726zm-4.4 7.942c6.05-1.254 9.548-5.236 9.548-10.318 0-4.202-2.068-6.776-5.61-6.776-3.036 0-5.456 1.936-5.456 5.368-0.022 3.08 2.068 4.862 4.818 4.862 1.254 0 2.31-0.374 3.058-1.012-0.616 3.564-2.618 5.874-6.534 7.216z" style=""/>
  </g>
  <g id="站" aria-label="站">
   <path d="m13.586 54.798v-15.254l4.785 0.696-0.696 0.899v0.087h0.986v-12.325l5.307 0.609-1.16 0.986v3.538h3.045l1.189-1.102 1.45 2.407h-5.684v5.887h0.551l0.638-0.899 4.205 1.45-0.986 1.334v11.687h-4.089v-1.595h-5.452v1.595zm-0.464-7.337q-0.261 0.406-0.783 0.986-0.493 0.58-1.189 1.218-0.667 0.638-1.45 1.305-0.783 0.638-1.624 1.218-0.812 0.58-1.595 1.015-0.783 0.464-1.45 0.696-0.464 0.145-0.696 0.087t-0.464-0.58l-1.363-3.161q1.102-0.116 2.436-0.348 1.363-0.232 2.755-0.609 0.232-1.131 0.435-2.726 0.232-1.595 0.406-3.248t0.29-3.161 0.116-2.494l3.364 1.16q0.609 0.145 0.435 0.899-0.174 0.899-0.609 2.117-0.406 1.218-0.986 2.523-0.58 1.276-1.276 2.523-0.696 1.218-1.392 2.175 1.392-0.377 2.61-0.783t2.03-0.812zm4.553 4.437h5.452v-9.367h-5.452zm-13.572-3.625q0-1.276-0.087-2.784-0.058-1.508-0.203-2.958-0.116-1.479-0.29-2.755-0.174-1.305-0.406-2.146 1.74 1.972 2.842 4.176 1.102 2.175 1.305 4.118 0.058 0.406-0.174 0.783-0.203 0.348-0.609 0.551zm-0.87-11.861-0.522-1.305h8.236l1.189-1.102 1.45 2.407zm3.915-1.74q-0.029-0.638-0.174-1.421-0.116-0.783-0.319-1.537-0.203-0.783-0.464-1.45t-0.58-1.073q1.827 0.377 2.929 0.928 1.131 0.551 1.624 1.102 0.522 0.522 0.493 1.015-0.029 0.464-0.493 0.725z" style=""/>
  </g>
  <g id="台" aria-label="台">
   <path d="m49.604 54.921v-1.769h-10.353v1.769h-4.176v-12.528l5.307 0.667-1.131 0.957v0.116h10.353l0.957-1.305 4.205 1.711-0.986 1.392v8.99zm-13.804-13.108q-0.493 0.058-0.87-0.087-0.377-0.174-0.522-0.754l-0.928-3.248q0.493 0.087 1.015 0.116t1.102 0.087q2.001-1.914 3.509-4.002t2.784-4.495l3.393 1.595q0.551 0.232 0.58 0.667 0.058 0.435-0.464 0.928-1.392 1.305-3.422 2.784-2.03 1.45-4.379 2.639 2.581 0.087 5.626 0 3.074-0.116 6.554-0.377-0.725-1.218-1.508-2.262t-1.595-1.798q2.436 0.812 4.263 1.827 1.827 0.986 2.9 1.943 1.102 0.957 1.392 1.798 0.29 0.812-0.319 1.305l-2.726 2.146q-0.377-0.928-0.783-1.827t-0.87-1.769q-1.45 0.377-3.364 0.783t-3.944 0.783-3.973 0.696-3.451 0.522zm3.451 10.034h10.353v-6.409h-10.353z" style=""/>
  </g>
  <g aria-label="4">
   <path d="m55.755 13.135v7.98h0.63q0.24 0 0.435-0.03 0.21-0.045 0.36-0.165 0.165-0.12 0.255-0.345 0.105-0.225 0.15-0.6l0.93 0.855q0.075 0.075 0.06 0.18 0 0.09-0.06 0.165-0.255 0.375-0.57 0.54-0.315 0.15-0.795 0.15h-1.395v3.195h0.75l0.225 0.525h-3.975l-0.225-0.525h0.99v-3.195h-5.04v-0.42l4.62-8.31zm-2.235 7.98v-6.825l-3.93 6.825z" style=""/>
  </g>
  <g aria-label="3">
   <path d="m39.62 17.735q-1.47 0-2.61-0.45-1.125-0.45-1.635-1.29-0.09-0.165-0.06-0.33 0.045-0.165 0.165-0.285l1.335-1.335q0.15 0.69 0.405 1.17 0.27 0.48 0.63 0.78t0.81 0.435 0.96 0.135q0.465 0 0.855-0.105 0.405-0.12 0.69-0.39 0.3-0.27 0.48-0.705t0.195-1.08q0.03-1.125-0.45-1.77-0.48-0.66-1.605-0.66h-1.2l-0.33-1.02h1.395q1.095 0 1.635-0.585 0.54-0.6 0.57-1.935 0.03-1.065-0.525-1.665-0.54-0.615-1.395-0.615-0.45 0-0.855 0.21-0.39 0.21-0.69 0.555-0.285 0.33-0.45 0.75t-0.165 0.84l-1.62-0.495q-0.27-0.06-0.39-0.36-0.09-0.3 0.075-0.54 0.33-0.495 0.765-0.84 0.45-0.36 0.96-0.57 0.525-0.225 1.08-0.33 0.57-0.105 1.14-0.105 0.765 0 1.545 0.165t1.395 0.555q0.63 0.39 1.005 1.02 0.39 0.63 0.39 1.56-0.015 1.14-0.675 1.89-0.66 0.735-1.815 1.095 0.54 0.12 1.005 0.405t0.795 0.675q0.345 0.39 0.54 0.87 0.195 0.465 0.195 0.945 0 0.93-0.36 1.575-0.345 0.645-0.96 1.05-0.6 0.405-1.44 0.585-0.825 0.195-1.785 0.195z" style=""/>
  </g>
  <g id="/" aria-label="/">
   <path d="m49.733 10.743-4.199 10.907h-1.326l4.199-10.907z" style=""/>
  </g>
  <g id="又" aria-label="又">
   <path d="m15.1 23.474q4.994-3.454 8.206-7.722-2.508-3.982-3.938-9.35h-1.914l-0.506-0.99h11.22l0.924-1.232 3.828 1.936-1.364 1.342q-1.034 2.464-2.222 4.532-1.166 2.068-2.618 3.85 3.234 2.97 7.458 4.422l-1.87 2.728q-0.242 0.374-0.682 0.462-0.44 0.11-0.946-0.198-1.65-0.99-3.124-2.31-1.474-1.342-2.772-3.014-1.936 1.848-4.312 3.234-2.354 1.364-5.368 2.31zm9.614-9.768q2.134-3.432 3.3-7.304h-7.634q0.924 2.134 2.002 3.96 1.078 1.804 2.332 3.344z" style=""/>
  </g>
 </g>
</svg>
